<?xml version="1.0" encoding="UTF-8" standalone="no"?>
<svg
   xmlns:svg="http://www.w3.org/2000/svg"
   xmlns="http://www.w3.org/2000/svg"
   xmlns:sodipodi="http://sodipodi.sourceforge.net/DTD/sodipodi-0.dtd"
   xmlns:inkscape="http://www.inkscape.org/namespaces/inkscape"
   id="simpcolibri"
   style="enable-background:new"
   sodipodi:docname="colibrisimple.svg"
   viewBox="0 0 397.69272 385.44536"
   version="1.1"
   inkscape:version="0.48.4 r9939"
   width="150px"
   height="130px">
  <sodipodi:namedview
     inkscape:zoom="1"
     inkscape:cx="322.534"
     inkscape:cy="108.5"
     inkscape:window-width="1920"
     inkscape:window-height="1018"
     inkscape:window-x="-8"
     inkscape:window-y="-8"
     inkscape:window-maximized="1"
     inkscape:current-layer="svg2" />
  <defs
     id="defs110" />
  <path
     d="m 195.73854,221.37503 z m 0,0 c -24.8178,-30.8644 40.4026,-86.268 7.2856,-89.656 -5.46546,-0.22771 -11.0362,-1.50304 -16.5004,-3.50966 -31.6239,44.1231 -42.6776,116.354 -41.8166,257.236 8.4497,-125.664 20.9104,-141.666 33.733,-152.117 6.12682,-4.07127 11.8713,-8.0493 17.2991,-11.9427 -0.005,-0.001 0.005,-0.0139 0,-0.0178 z"
     style="fill:#ff7900;enable-background:new"
     sodipodi:nodetypes="ccccccccc"
     id="path1"
     inkscape:connector-curvature="0" />
  <path
     style="fill:#ffe300;enable-background:new"
     d="M 122.74062,-3.5927423e-6 C 118.44401,11.633836 120.07513,30.382686 127.72812,58.581246 c 1.30494,4.94276 13.91284,21.52282 13.91284,21.52282 C 109.83357,60.900526 42.49918,34.625106 0,5.5562464 28.7966,54.306336 50.23918,73.410856 63.41562,92.334376 c 49.44612,49.133554 83.58686,70.212024 123.33125,82.381244 13.45683,-3.81157 53.26408,-41.67387 36.64062,-55.125 C 186.93849,67.440616 156.74032,41.712516 122.74062,-3.5927422e-6 z"
     id="path2"
     inkscape:connector-curvature="0"
     sodipodi:nodetypes="cccccccc" />
  <path
     d="m 328.29754,85.330036 -3.62614,8.0836 3.34334,5.5888 c 32.3162,19.770094 69.678,59.481794 69.678,59.481794 0,0 -25.2924,-32.4737 -69.3952,-73.156994 z"
     style="fill:#ffe300;enable-background:new"
     sodipodi:nodetypes="ccccc"
     id="path3"
     inkscape:connector-curvature="0" />
  <path
     d="m 278.34555,51.665626 c -15.99711,0.0872 -34.64441,10.1752 -54.159,41.05151 -5.81876,3.8185 -11.26581,7.877794 -16.35061,12.259094 -16.34779,-9.034894 -33.2087,-16.965894 -50.2999,-24.401294 -38.822,-11.67391 -7.37869,34.298594 28.9919,47.655294 5.46462,2.00662 11.0348,3.28195 16.5004,3.50966 33.11701,3.38695 -32.1034,58.7902 -7.2856,89.656 116.669,-83.706 77.546,-126.258994 132.272,-122.408994 l -3.34334,-5.57221 3.62614,-8.0836 c 0,0 -20.4449,-33.82751 -49.9506,-33.66651 z m 9.1483,15.1368 c 0.76335,-0.0232 1.55421,0.0675 2.32869,0.28275 4.13042,1.14898 6.5382,5.43397 5.38922,9.56411 -1.14897,4.13042 -5.4173,6.5548 -9.548,5.40589 -4.13042,-1.14898 -6.55486,-5.43389 -5.40589,-9.5641 0.9336,-3.35595 3.92785,-5.58867 7.23591,-5.6887 z"
     style="fill:#00d0d0;enable-background:new"
     id="path4"
     inkscape:connector-curvature="0" />
  <path
     d="m 226.56654,197.29503 c 47.4943,-40.782 56.7455,-69.3455 67.3162,-84.861 -50.2642,-2.60456 -41.7613,46.5808 -67.3162,84.861 z"
     style="fill:#ffe300;stroke-opacity:0"
     sodipodi:nodetypes="ccc"
     id="path5"
     inkscape:connector-curvature="0" />
  <path
     sodipodi:type="arc"
     style="fill:#689a1b;fill-opacity:1;stroke:none"
     id="path6"
     sodipodi:cx="375.9296"
     sodipodi:cy="73.73822"
     sodipodi:rx="2.6985559"
     sodipodi:ry="3.0445247"
     d="m 378.62815,73.73822 a 2.6985559,3.0445247 0 1 1 -5.39711,0 2.6985559,3.0445247 0 1 1 5.39711,0 z"
     inkscape:transform-center-x="-14.654916"
     inkscape:transform-center-y="-8.0264757"
     transform="matrix(3.0256412,0,0,2.6363637,-849.93422,-119.57186)" />
</svg>
