<?xml version="1.0" encoding="UTF-8" standalone="no"?>
<svg
   xmlns:dc="http://purl.org/dc/elements/1.1/"
   xmlns:cc="http://creativecommons.org/ns#"
   xmlns:rdf="http://www.w3.org/1999/02/22-rdf-syntax-ns#"
   xmlns:svg="http://www.w3.org/2000/svg"
   xmlns="http://www.w3.org/2000/svg"
   xmlns:sodipodi="http://sodipodi.sourceforge.net/DTD/sodipodi-0.dtd"
   xmlns:inkscape="http://www.inkscape.org/namespaces/inkscape"
   id="svg2"
   style="enable-background:new"
   sodipodi:docname="colibri.svg"
   viewBox="0 0 708.66 708.66"
   version="1.1"
   inkscape:version="0.48.4 r9939"
   width="100%"
   height="100%">
  <sodipodi:namedview
     id="base"
     inkscape:zoom="1"
     borderopacity="1.0"
     inkscape:snap-intersection-paths="true"
     inkscape:cx="342.30183"
     inkscape:cy="395.8331"
     inkscape:object-paths="true"
     inkscape:window-maximized="1"
     showgrid="true"
     inkscape:snap-nodes="true"
     units="cm"
     inkscape:snap-midpoints="true"
     inkscape:snap-global="true"
     inkscape:document-units="px"
     bordercolor="#666666"
     inkscape:window-x="-8"
     inkscape:window-y="-8"
     inkscape:snap-smooth-nodes="true"
     inkscape:object-nodes="true"
     inkscape:window-width="1920"
     inkscape:pageopacity="0.0"
     inkscape:pageshadow="2"
     pagecolor="#ffffff"
     inkscape:current-layer="layer2"
     inkscape:window-height="1018">
    <inkscape:grid
       id="grid3087"
       type="xygrid" />
  </sodipodi:namedview>
  <defs
     id="defs110" />
  <g
     transform="translate(-19.966 -4.6762)"
     inkscape:groupmode="layer"
     inkscape:label="Colibri"
     id="layer2">
    <path
       d="m 303.03,325.02 z m 0,0 c -35.454,-44.092 57.718,-123.24 10.408,-128.08 -7.8078,-0.3253 -15.766,-2.1472 -23.572,-5.0138 -45.177,63.033 -60.968,166.22 -59.738,367.48 12.071,-179.52 29.872,-202.38 48.19,-217.31 8.7526,-5.8161 16.959,-11.499 24.713,-17.061 -0.007,-0.002 0.007,-0.0198 0,-0.0254 z"
       style="fill:#ff7900;enable-background:new"
       sodipodi:nodetypes="ccccccccc"
       id="path1"
       inkscape:connector-curvature="0" />
    <path
       style="fill:#ffe300;enable-background:new"
       d="m 178.78125,4.09375 c -5.213,57.763998 91.1875,120.125 91.1875,120.125 0,0 -58.04225,-30.810252 -89.90625,-81.53125 0.62275,40.128998 88.4375,85.09375 88.4375,85.09375 0,0 -36.521,-14.1805 -85.375,-57.4375 2.20483,19.991152 48.79139,44.67891 72.21875,55.875 -17.65252,-8.23724 -49.12435,-23.71227 -69.4375,-38.4375 1.8642,7.061084 6.93345,13.45478 13.6875,19.15625 C 132.41818,79.014848 64.150628,53.55819 3.4375,12.03125 c 11.406,57.572998 185.71875,98.3125 185.71875,98.3125 0,0 -102.641253,-17.935752 -170.53125,-60.84375 14.664999,39.105999 169.46875,64.625 169.46875,64.625 0,0 -62.8555,-6.17415 -155.1875,-38.21875 11.773,21.781999 117.275,37.34875 148.125,41.46875 -20.17,-2.586 -90.203252,-11.75675 -135.78125,-20.59375 15.105999,18.331 86.979,24.94275 138.75,27.34375 -39.999,-0.86529 -89.890751,-1.63966 -107.21875,-0.71875 30.437,18.445 116.71875,7.03125 116.71875,7.03125 0,0 -57.01625,11.67425 -93.40625,13.03125 5.9744,24.441 99.96875,1.09375 99.96875,1.09375 0,0 -53.32725,13.3605 -82.03125,24.4375 9.9743,16.479 60.322,-3.1109 80.25,-11.6875 -14.54,6.6772 -44.1225,21.29425 -52.5625,33.40625 15.751,2.1726 67.625,-30.15625 67.625,-30.15625 0,0 -45.89225,29.09675 -50.78125,43.21875 11.159,2.6783 42.52675,-23.56875 53.46875,-33.09375 -9.7301,8.6742 -34.5665,31.833 -37.1875,44.5 10.06389,-3.62286 33.08953,-23.93597 44.34375,-34.21875 -10.45237,10.07501 -29.92195,30.35449 -29.125,40.71875 7.0115,0.62879 29.169,-21.06625 40.25,-32.40625 -2.00685,2.13991 -4.36028,4.73667 -6.78125,7.46875 -0.19402,0.14453 -0.4027,0.29285 -0.59375,0.4375 0.0498,0.023 0.1046,0.0413 0.15625,0.0625 -8.9232,10.11414 -18.90625,22.75561 -18.90625,28.78125 6.7079,-0.60981 21.4985,-13.94225 33.1875,-25.53125 -7.5768,8.9252 -15.84025,20.35125 -20.15625,32.03125 8.5996,-2.8666 22.70325,-16.264 32.90625,-26.875 -8.4834,10.502 -18.75175,24.38175 -18.59375,29.84375 0,0 9.1237,-3.88507 21.75,-16.75 -3.95683,5.44427 -7.06024,10.77117 -7.75,14.9375 0.40573,0.62712 1.26858,0.64181 2.4375,0.15625 -0.54807,1.56485 -0.94913,3.04472 -1.125,4.34375 0,0 5.3328,-3.65777 12.59375,-10.0625 -3.20843,4.54375 -5.68861,8.74869 -6.3125,11.65625 4.03823,0.26185 14.35783,-8.98582 22.9375,-17.46875 -5.53256,6.64544 -11.75971,15.39891 -16.46875,25.53125 5.26865,-1.54297 15.1463,-11.05888 23.1875,-19.59375 -6.31872,7.67497 -13.30456,17.22631 -16.5625,25.4375 13.87256,-0.91124 38.35331,-50.61104 78,-77.65625 0,0 -13.84725,9.21705 -25.65625,-1.09375 -52.07,-74.5 -112.65125,-99.171753 -143.78125,-170.84375 z m 34.6875,112.4375 c 23.87412,13.93833 54.15625,21.65625 54.15625,21.65625 0,0 -28.53764,-7.20465 -64.5,-12.9375 -0.25717,-5.27932 2.8632,-8.64787 10.34375,-8.71875 z m -9.84375,11.875 c 19.13755,16.43857 64.71875,16 64.71875,16 0,0 -32.87941,3.64864 -55.21875,1.1875 -4.9374,-6.33476 -8.28573,-12.31333 -9.5,-17.1875 z m 65.6875,30.65625 c 0,0 -17.76309,3.13993 -35.0625,7.53125 -2.62079,-2.09513 -5.126,-4.23005 -7.5,-6.40625 17.705,3.20315 42.5625,-1.125 42.5625,-1.125 z m 4.15625,12.5625 c 0,0 -8.27125,3.53622 -18.5625,8.78125 -1.03935,-0.56584 -2.06951,-1.15572 -3.09375,-1.75 11.7021,-3.00597 21.65625,-7.03125 21.65625,-7.03125 z m -4.03125,8.0625 c -0.11005,0.18871 -0.23916,0.3743 -0.34375,0.5625 -1.72646,1.20397 -3.71104,2.64341 -5.90625,4.25 -0.36521,-0.16378 -0.72971,-0.3321 -1.09375,-0.5 2.85867,-1.63265 5.26929,-3.05476 7.34375,-4.3125 z"
       id="path2"
       transform="translate(19.966,4.6762)"
       inkscape:connector-curvature="0" />
    <path
       d="m 492.4,130.67 -5.1802,11.548 4.7762,7.984 c 46.166,28.243 99.54,84.974 99.54,84.974 0,0 -36.132,-46.391 -99.136,-104.51 z"
       style="fill:#ffe300;enable-background:new"
       sodipodi:nodetypes="ccccc"
       id="path3"
       inkscape:connector-curvature="0" />
    <path
       d="m 421.04,82.578 c -22.853,0.12457 -49.492,14.536 -77.37,58.645 -8.3125,5.455 -16.094,11.254 -23.358,17.513 -23.354,-12.907 -47.441,-24.237 -71.857,-34.859 -55.46,-16.677 -10.541,48.998 41.417,68.079 7.8066,2.8666 15.764,4.6885 23.572,5.0138 47.31,4.8385 -45.862,83.986 -10.408,128.08 166.67,-119.58 110.78,-180.37 188.96,-174.87 l -4.7762,-7.9603 5.1802,-11.548 c 0,0 -29.207,-48.325 -71.358,-48.095 z m 13.069,21.624 c 1.0905,-0.0332 2.2203,0.0965 3.3267,0.40392 5.9006,1.6414 9.3403,7.7628 7.6989,13.663 -1.6414,5.9006 -7.739,9.364 -13.64,7.7227 -5.9006,-1.6414 -9.3641,-7.7627 -7.7227,-13.663 1.3337,-4.7942 5.6112,-7.9838 10.337,-8.1267 z"
       style="fill:#00d0d0;enable-background:new"
       id="path4"
       inkscape:connector-curvature="0" />
    <path
       style="fill:#ffe300;fill-rule:evenodd"
       d="m 412.15625,94.90625 c -6.4802,0.19592 -12.3585,4.51895 -14.1875,11.09375 -2.2509,8.0918 2.4709,16.499 10.5625,18.75 8.0918,2.2509 16.46775,-2.50215 18.71875,-10.59375 2.2509,-8.0918 -2.4709,-16.46775 -10.5625,-18.71875 -1.5172,-0.42207 -3.03575,-0.57649 -4.53125,-0.53125 z m 2,4.625 c 1.0905,-0.0332 2.2061,0.09883 3.3125,0.40625 4.29551,1.1949 7.28555,4.74542 7.96875,8.875 -0.84668,-1.6736 -2.36314,-2.989 -4.3125,-3.53125 -3.6783,-1.02318 -7.47682,1.1342 -8.5,4.8125 -1.02318,3.6783 1.10295,7.47682 4.78125,8.5 1.9541,0.54357 3.94005,0.18906 5.53125,-0.8125 -2.71563,3.18279 -7.10895,4.69546 -11.40625,3.5 -5.9006,-1.6414 -9.36015,-7.7249 -7.71875,-13.625 1.3337,-4.7942 5.61865,-7.9821 10.34375,-8.125 z"
       id="path5"
       transform="translate(19.966,4.6762)"
       inkscape:connector-curvature="0" />
    <path
       d="M 421.04,82.578 C 398.19,82.703 371.55,97.115 343.67,141.22 394.44,74.947 438.21,85.95 460.77,96.693 449.71,88.706 436.22,82.495 421.04,82.578 z"
       style="fill:#ff7900;enable-background:new"
       sodipodi:nodetypes="cccc"
       id="path6"
       inkscape:connector-curvature="0" />
    <path
       d="m 347.07,290.62 c 67.849,-58.26 81.065,-99.065 96.166,-121.23 -71.806,-3.7208 -59.659,66.544 -96.166,121.23 z"
       style="fill:#ffe300;stroke-opacity:0"
       sodipodi:nodetypes="ccc"
       id="path7"
       inkscape:connector-curvature="0" />
  </g>
  <metadata
     id="metadata108">
    <rdf:RDF>
      <cc:Work>
        <dc:format>image/svg+xml</dc:format>
        <dc:type
           rdf:resource="http://purl.org/dc/dcmitype/StillImage" />
        <cc:license
           rdf:resource="http://creativecommons.org/licenses/publicdomain/" />
        <dc:publisher>
          <cc:Agent
             rdf:about="http://openclipart.org/">
            <dc:title>Openclipart</dc:title>
          </cc:Agent>
        </dc:publisher>
        <dc:title>Colibri Birds</dc:title>
        <dc:date>2010-07-17T12:13:46</dc:date>
        <dc:description />
        <dc:source>https://openclipart.org/detail/73573/colibri-birds-by-pixelflake</dc:source>
        <dc:creator>
          <cc:Agent>
            <dc:title>pixelflake</dc:title>
          </cc:Agent>
        </dc:creator>
        <dc:subject>
          <rdf:Bag>
            <rdf:li>Bird</rdf:li>
            <rdf:li>Birdie</rdf:li>
            <rdf:li>Birds</rdf:li>
            <rdf:li>Colibri</rdf:li>
            <rdf:li>Kolibri</rdf:li>
            <rdf:li>Vogel</rdf:li>
            <rdf:li>Vögel</rdf:li>
          </rdf:Bag>
        </dc:subject>
      </cc:Work>
      <cc:License
         rdf:about="http://creativecommons.org/licenses/publicdomain/">
        <cc:permits
           rdf:resource="http://creativecommons.org/ns#Reproduction" />
        <cc:permits
           rdf:resource="http://creativecommons.org/ns#Distribution" />
        <cc:permits
           rdf:resource="http://creativecommons.org/ns#DerivativeWorks" />
      </cc:License>
    </rdf:RDF>
  </metadata>
</svg>
